<?xml version="1.0" standalone="no"?>
<!DOCTYPE svg PUBLIC "-//W3C//DTD SVG 20010904//EN"
 "http://www.w3.org/TR/2001/REC-SVG-20010904/DTD/svg10.dtd">
<svg version="1.0" xmlns="http://www.w3.org/2000/svg"
 width="512.000000pt" height="512.000000pt" viewBox="0 0 512.000000 512.000000"
 preserveAspectRatio="xMidYMid meet">

<g transform="translate(0.000000,512.000000) scale(0.100000,-0.100000)"
fill="#000000" stroke="none">
<path d="M466 5098 c-10 -14 -16 -44 -16 -80 l0 -58 -49 0 c-52 0 -81 -17 -81
-49 0 -29 22 -41 77 -41 l53 0 0 -65 0 -65 -103 0 c-108 0 -127 -7 -127 -45 0
-38 19 -45 127 -45 l103 0 0 -65 0 -65 -103 0 c-108 0 -127 -7 -127 -45 0 -38
19 -45 127 -45 l103 0 0 -65 0 -65 -103 0 c-109 0 -127 -7 -127 -47 0 -34 29
-43 134 -43 l96 0 0 -60 0 -60 -93 0 c-103 0 -137 -14 -137 -55 0 -36 28 -45
134 -45 l96 0 0 -60 0 -60 -43 0 c-23 0 -53 -7 -65 -16 -49 -34 -10 -84 65
-84 l43 0 0 -835 0 -835 -84 0 c-114 0 -116 -3 -116 -172 l0 -128 -40 0 c-29
0 -42 -5 -50 -19 -7 -13 -10 -307 -10 -884 0 -827 1 -865 18 -881 18 -15 175
-16 2203 -14 2130 3 2185 3 2234 22 219 85 364 285 365 502 0 90 40 84 -581
84 l-544 0 55 31 c477 269 778 679 891 1214 21 97 24 137 24 335 0 197 -3 239
-23 333 -129 604 -520 1074 -1079 1298 -244 98 -511 139 -767 119 -255 -20
-446 -73 -671 -185 -158 -79 -286 -169 -417 -294 l-98 -93 0 95 c0 88 -2 98
-26 126 -21 25 -33 31 -67 31 -40 0 -46 -5 -280 -237 -153 -152 -246 -252
-258 -278 -17 -37 -19 -69 -19 -387 0 -299 -2 -348 -15 -348 -27 0 -35 -39
-35 -180 0 -138 -1 -143 -24 -161 -13 -11 -34 -38 -45 -62 -19 -40 -21 -61
-21 -245 l0 -202 -60 0 -60 0 0 128 c0 86 -4 132 -12 140 -7 7 -29 12 -50 12
l-38 0 0 124 c0 69 -4 136 -10 150 -9 25 -12 26 -100 26 l-90 0 0 835 0 835
34 0 c76 0 116 41 80 81 -12 14 -30 19 -66 19 l-48 0 0 59 0 59 105 4 c109 3
124 9 125 50 0 38 -27 48 -131 48 l-99 0 0 60 0 60 99 0 c105 0 131 10 131 50
0 36 -38 50 -137 50 l-93 0 0 60 0 60 98 0 c109 0 136 10 130 50 -5 37 -42 50
-140 50 l-88 0 0 60 0 60 103 0 c108 0 127 7 127 45 0 38 -19 45 -127 45
l-103 0 0 65 0 65 55 0 c43 0 56 4 65 19 23 45 -3 71 -71 71 l-49 0 0 58 c0
63 -19 102 -50 102 -10 0 -26 -10 -34 -22z m2930 -1277 c511 -105 932 -431
1165 -902 225 -455 224 -1006 -2 -1463 -183 -369 -499 -661 -875 -810 l-91
-36 -527 0 -526 0 -64 24 c-172 65 -369 185 -510 309 l-66 58 1 182 0 182 37
-45 c72 -88 228 -236 307 -291 243 -169 474 -246 772 -256 171 -6 249 1 398
38 758 188 1224 971 1030 1729 -51 199 -138 375 -261 530 -207 260 -486 435
-814 511 -127 30 -393 37 -530 14 -118 -19 -311 -80 -404 -127 -131 -66 -260
-160 -371 -272 -116 -117 -186 -211 -260 -348 l-45 -83 0 231 0 230 90 97
c243 258 544 428 884 498 195 40 466 40 662 0z m-1731 -1439 c-3 -10 -55 -12
-232 -10 l-228 3 -3 305 c-2 168 0 325 3 350 6 43 18 57 233 273 l227 228 3
-568 c1 -312 0 -574 -3 -581z m1675 1109 c269 -61 471 -171 661 -360 261 -260
394 -579 393 -941 -1 -350 -126 -663 -363 -912 -197 -208 -432 -335 -736 -399
-79 -17 -360 -18 -450 -1 -364 68 -683 274 -878 568 l-67 101 0 184 c0 201 -8
237 -64 288 -26 24 -26 25 -26 172 0 121 -3 150 -16 163 -8 9 -20 16 -25 16
-18 0 -8 90 21 190 128 430 455 764 880 898 52 16 127 35 165 41 39 6 81 13
95 15 61 11 328 -4 410 -23z m-1630 -1311 l0 -100 -280 0 -280 0 0 93 c0 52 3
97 7 100 3 4 129 7 280 7 l273 0 0 -100z m-1060 -275 l0 -105 -150 0 -150 0 0
105 0 105 150 0 150 0 0 -105z m1122 47 l33 -32 3 -853 c2 -587 0 -864 -8
-889 -20 -71 -41 -78 -221 -78 l-158 0 -3 633 c-3 595 -4 634 -22 667 -46 87
-95 112 -233 118 l-103 5 0 184 c0 227 7 247 90 277 8 3 144 4 302 3 l288 -2
32 -33z m-1022 -337 l0 -95 -30 0 c-118 0 -208 -63 -229 -159 -7 -35 -11 -250
-11 -656 l0 -605 -115 0 -115 0 0 805 0 805 250 0 250 0 0 -95z m493 -196 c26
-7 44 -21 57 -42 19 -31 20 -56 20 -654 l0 -623 -370 0 -370 0 0 195 0 194
128 91 c70 50 131 100 136 111 11 22 -17 59 -44 59 -9 0 -51 -24 -92 -54 -41
-29 -86 -61 -101 -71 l-27 -17 0 64 0 65 129 92 c71 50 132 99 135 108 7 17
-18 63 -35 63 -17 0 -49 -19 -136 -81 -44 -33 -84 -59 -87 -59 -3 0 -6 112 -6
249 0 236 1 250 21 275 11 14 35 30 52 35 45 13 543 13 590 0z m737 -610 c65
-53 154 -111 240 -158 l75 -41 -197 0 -198 0 0 131 c0 124 1 131 18 118 9 -8
37 -30 62 -50z m2890 -321 c0 -84 -52 -192 -127 -265 -59 -58 -88 -75 -171
-104 -53 -18 -107 -19 -1377 -19 l-1323 0 14 38 c9 25 13 92 14 210 l0 172
1485 0 1485 0 0 -32z"/>
<path d="M1302 2998 c-9 -9 -12 -70 -12 -213 0 -211 3 -225 45 -225 42 0 45
14 45 225 0 211 -3 225 -45 225 -12 0 -26 -5 -33 -12z"/>
<path d="M2579 2791 c-41 -41 -50 -79 -24 -101 23 -19 59 -4 99 40 37 42 45
67 24 88 -23 23 -59 13 -99 -27z"/>
<path d="M3008 2343 c-372 -372 -468 -473 -468 -494 0 -28 17 -49 40 -49 8 0
231 216 494 479 471 472 479 480 464 503 -37 56 -33 59 -530 -439z"/>
<path d="M2338 2546 c-71 -67 -108 -111 -108 -124 0 -29 43 -57 67 -44 28 16
213 208 213 221 0 26 -22 51 -43 51 -14 -1 -61 -38 -129 -104z"/>
<path d="M3826 2189 c-14 -17 -26 -36 -26 -43 0 -17 33 -46 51 -46 22 0 69 52
69 76 0 51 -56 59 -94 13z"/>
<path d="M3581 1946 c-130 -132 -138 -148 -88 -176 l27 -15 132 132 c126 126
131 133 120 157 -8 19 -19 26 -40 26 -23 0 -51 -24 -151 -124z"/>
<path d="M3674 1749 c-108 -107 -200 -202 -205 -211 -15 -27 6 -58 39 -58 22
0 64 37 220 193 206 206 215 221 164 255 -22 15 -28 10 -218 -179z"/>
<path d="M2314 1648 c-58 -54 -74 -89 -54 -113 23 -28 54 -16 113 43 56 57 68
87 45 110 -22 22 -49 12 -104 -40z"/>
<path d="M3296 384 c-19 -18 -20 -28 -6 -55 10 -18 26 -19 430 -19 414 0 419
0 430 21 9 16 8 26 -5 45 l-15 24 -410 0 c-358 0 -411 -2 -424 -16z"/>
<path d="M4322 388 c-7 -7 -12 -21 -12 -33 0 -39 19 -45 130 -45 111 0 130 6
130 45 0 12 -5 26 -12 33 -16 16 -220 16 -236 0z"/>
</g>
</svg>
